<svg xmlns="http://www.w3.org/2000/svg" xmlns:xlink="http://www.w3.org/1999/xlink" width="500" zoomAndPan="magnify" viewBox="0 0 375 374.999991" height="500" preserveAspectRatio="xMidYMid meet" version="1.0"><defs><g/><clipPath id="5c10f47348"><path d="M 174.4375 80.648438 L 374.808594 80.648438 L 374.808594 281.019531 L 174.4375 281.019531 Z M 174.4375 80.648438 " clip-rule="nonzero"/></clipPath></defs><g fill="#1a1a1a" fill-opacity="1"><g transform="translate(-3.01749, 207.512989)"><g><path d="M 2.753906 -35.214844 C 2.089844 -35.214844 1.707031 -34.882812 1.707031 -34.171875 L 1.707031 -26.578125 C 1.707031 -25.769531 2.089844 -25.390625 2.753906 -25.390625 L 11.199219 -25.390625 L 11.199219 -1.042969 C 11.199219 -0.332031 11.582031 0 12.246094 0 L 21.453125 0 C 22.210938 0 22.589844 -0.332031 22.589844 -1.042969 L 22.589844 -25.390625 L 31.085938 -25.390625 C 31.703125 -25.390625 32.128906 -26.101562 32.128906 -26.578125 L 32.128906 -34.171875 C 32.128906 -34.882812 31.65625 -35.214844 31.085938 -35.214844 Z M 2.753906 -35.214844 "/></g></g></g><g fill="#1a1a1a" fill-opacity="1"><g transform="translate(31.011576, 207.512989)"><g><path d="M 3.796875 -1.042969 C 3.796875 -0.332031 4.175781 0 4.839844 0 L 14.097656 0 C 14.902344 0 15.28125 -0.332031 15.28125 -1.042969 L 15.28125 -34.171875 C 15.28125 -34.789062 14.570312 -35.214844 14.097656 -35.214844 L 4.839844 -35.214844 C 4.175781 -35.214844 3.796875 -34.742188 3.796875 -34.171875 Z M 3.796875 -1.042969 "/></g></g></g><g fill="#1a1a1a" fill-opacity="1"><g transform="translate(50.138092, 207.512989)"><g><path d="M 40.199219 -34.171875 C 40.105469 -34.742188 39.675781 -35.214844 38.964844 -35.214844 L 27.953125 -35.214844 C 27.195312 -35.214844 26.71875 -34.882812 26.53125 -34.171875 L 22.449219 -17.609375 L 18.460938 -34.171875 C 18.175781 -34.882812 17.703125 -35.214844 17.039062 -35.214844 L 5.980469 -35.214844 C 5.316406 -35.214844 4.886719 -34.742188 4.792969 -34.171875 L 1.566406 -1.042969 C 1.566406 -0.332031 1.804688 0 2.5625 0 L 11.675781 0 C 12.480469 0 12.8125 -0.332031 12.863281 -1.042969 L 14.144531 -14.761719 L 17.179688 -1.042969 C 17.226562 -0.472656 17.796875 0 18.273438 0 L 26.71875 0 C 27.195312 0 27.667969 -0.570312 27.765625 -1.042969 L 30.753906 -14.855469 L 32.082031 -1.042969 C 32.128906 -0.332031 32.511719 0 33.316406 0 L 42.429688 0 C 43.1875 0 43.425781 -0.332031 43.425781 -1.042969 Z M 40.199219 -34.171875 "/></g></g></g><g fill="#1a1a1a" fill-opacity="1"><g transform="translate(95.700012, 207.512989)"><g><path d="M 4.9375 -35.214844 C 4.269531 -35.214844 3.890625 -34.742188 3.890625 -34.171875 L 3.890625 -1.042969 C 3.890625 -0.332031 4.269531 0 4.9375 0 L 29.472656 0 C 30.183594 0 30.707031 -0.425781 30.707031 -1.1875 L 30.707031 -7.878906 C 30.707031 -8.542969 30.230469 -8.921875 29.664062 -8.921875 L 14.808594 -8.921875 L 14.808594 -13.527344 L 24.585938 -13.527344 C 25.25 -13.527344 25.628906 -14.046875 25.628906 -14.378906 L 25.628906 -20.789062 C 25.628906 -21.261719 25.152344 -21.59375 24.585938 -21.59375 L 14.808594 -21.59375 L 14.808594 -26.433594 L 29.140625 -26.433594 C 29.804688 -26.433594 30.183594 -27.148438 30.183594 -27.621094 L 30.183594 -34.171875 C 30.183594 -34.882812 29.710938 -35.214844 29.140625 -35.214844 Z M 4.9375 -35.214844 "/></g></g></g><g fill="#1a1a1a" fill-opacity="1"><g transform="translate(128.495096, 207.512989)"><g><path d="M 2.753906 -35.214844 C 2.089844 -35.214844 1.707031 -34.882812 1.707031 -34.171875 L 1.707031 -26.578125 C 1.707031 -25.769531 2.089844 -25.390625 2.753906 -25.390625 L 11.199219 -25.390625 L 11.199219 -1.042969 C 11.199219 -0.332031 11.582031 0 12.246094 0 L 21.453125 0 C 22.210938 0 22.589844 -0.332031 22.589844 -1.042969 L 22.589844 -25.390625 L 31.085938 -25.390625 C 31.703125 -25.390625 32.128906 -26.101562 32.128906 -26.578125 L 32.128906 -34.171875 C 32.128906 -34.882812 31.65625 -35.214844 31.085938 -35.214844 Z M 2.753906 -35.214844 "/></g></g></g><g clip-path="url(#5c10f47348)"><path fill="#1a1a1a" d="M 274.621094 98.867188 C 229.351562 98.867188 192.652344 135.5625 192.652344 180.835938 C 192.652344 226.105469 229.351562 262.804688 274.621094 262.804688 C 319.890625 262.804688 356.589844 226.105469 356.589844 180.835938 C 356.589844 135.5625 319.890625 98.867188 274.621094 98.867188 Z M 174.4375 180.835938 C 174.4375 125.503906 219.292969 80.648438 274.621094 80.648438 C 329.953125 80.648438 374.808594 125.503906 374.808594 180.835938 C 374.808594 236.164062 329.953125 281.019531 274.621094 281.019531 C 219.292969 281.019531 174.4375 236.164062 174.4375 180.835938 Z M 174.4375 180.835938 " fill-opacity="1" fill-rule="evenodd"/></g><path fill="#1a1a1a" d="M 265.515625 180.835938 C 265.515625 175.804688 269.589844 171.726562 274.621094 171.726562 L 320.160156 171.726562 L 320.160156 189.941406 L 283.730469 189.941406 L 283.730469 240.035156 L 265.515625 240.035156 Z M 265.515625 180.835938 " fill-opacity="1" fill-rule="evenodd"/><path stroke-linecap="butt" transform="matrix(2.012275, 0, 0, 2.003701, 162.543875, 171.914946)" fill="none" stroke-linejoin="miter" d="M -0.000450175 4.499046 L 43.824316 4.499046 " stroke="#1a1a1a" stroke-width="9" stroke-opacity="1" stroke-miterlimit="4"/><path stroke-linecap="butt" transform="matrix(0, -1.9749, 2.003701, 0, 270.697576, 114.972158)" fill="none" stroke-linejoin="miter" d="M -0.000252266 1.999076 L 15.231928 1.999076 " stroke="#1a1a1a" stroke-width="4" stroke-opacity="1" stroke-miterlimit="4"/><path stroke-linecap="butt" transform="matrix(0.982658, -1.702013, 1.735256, 1.00185, 302.853383, 123.328425)" fill="none" stroke-linejoin="miter" d="M 0.000124047 2.000117 L 16.322593 1.999922 " stroke="#1a1a1a" stroke-width="4" stroke-opacity="1" stroke-miterlimit="4"/><path stroke-linecap="butt" transform="matrix(1.838501, -0.768643, 0.772882, 1.84864, 328.772942, 143.239721)" fill="none" stroke-linejoin="miter" d="M 0.000647337 2.000539 L 17.100388 2.000032 " stroke="#1a1a1a" stroke-width="4" stroke-opacity="1" stroke-miterlimit="4"/><path stroke-linecap="butt" transform="matrix(1.979642, 0, 0, 2.003701, 336.302063, 172.564119)" fill="none" stroke-linejoin="miter" d="M -0.000647575 1.999397 L 18.225893 1.999397 " stroke="#1a1a1a" stroke-width="4" stroke-opacity="1" stroke-miterlimit="4"/></svg>